<svg xmlns="http://www.w3.org/2000/svg" width="32" height="32" viewBox="0 0 32 32" fill="none">
  <!-- Book shadow -->
  <ellipse cx="16" cy="28" rx="12" ry="2" fill="#000000" opacity="0.1"/>
  
  <!-- Left page -->
  <path d="M3 6 C3 4.9 3.9 4 5 4 L16 4 L16 26 L5 26 C3.9 26 3 25.1 3 24 Z" fill="#FFFFFF" stroke="#D1D5DB" stroke-width="0.8"/>
  
  <!-- Right page -->
  <path d="M16 4 L27 4 C28.1 4 29 4.9 29 6 L29 24 C29 25.1 28.1 26 27 26 L16 26 Z" fill="#FFFFFF" stroke="#D1D5DB" stroke-width="0.8"/>
  
  <!-- Book spine/binding -->
  <line x1="16" y1="4" x2="16" y2="26" stroke="#9CA3AF" stroke-width="1.5"/>
  
  <!-- Left page content -->
  <rect x="5" y="7" width="9" height="0.8" fill="#6B7280" rx="0.4"/>
  <rect x="5" y="9.5" width="7" height="0.8" fill="#6B7280" rx="0.4"/>
  <rect x="5" y="12" width="8.5" height="0.8" fill="#6B7280" rx="0.4"/>
  <rect x="5" y="14.5" width="6" height="0.8" fill="#6B7280" rx="0.4"/>
  <rect x="5" y="17" width="9" height="0.8" fill="#6B7280" rx="0.4"/>
  <rect x="5" y="19.5" width="7.5" height="0.8" fill="#6B7280" rx="0.4"/>
  <rect x="5" y="22" width="8" height="0.8" fill="#6B7280" rx="0.4"/>
  
  <!-- Right page content -->
  <rect x="18" y="7" width="9" height="0.8" fill="#6B7280" rx="0.4"/>
  <rect x="18" y="9.5" width="8" height="0.8" fill="#6B7280" rx="0.4"/>
  <rect x="18" y="12" width="7" height="0.8" fill="#6B7280" rx="0.4"/>
  <rect x="18" y="14.5" width="9" height="0.8" fill="#6B7280" rx="0.4"/>
  <rect x="18" y="17" width="6.5" height="0.8" fill="#6B7280" rx="0.4"/>
  <rect x="18" y="19.5" width="8.5" height="0.8" fill="#6B7280" rx="0.4"/>
  <rect x="18" y="22" width="7.5" height="0.8" fill="#6B7280" rx="0.4"/>
  
  <!-- Digital accent - small code brackets on right page -->
  <text x="24" y="11" font-family="monospace" font-size="3" fill="#3B82F6" font-weight="bold">&lt;/&gt;</text>
  
  <!-- Page curl effect on right page -->
  <path d="M27 4 L29 6 L27 6 Z" fill="#F3F4F6" stroke="#D1D5DB" stroke-width="0.5"/>
  
  <!-- Subtle page depth lines -->
  <line x1="4" y1="25" x2="4" y2="24.5" stroke="#E5E7EB" stroke-width="1"/>
  <line x1="28" y1="25" x2="28" y2="24.5" stroke="#E5E7EB" stroke-width="1"/>
</svg>
