<svg xmlns="http://www.w3.org/2000/svg" width="32" height="32" viewBox="0 0 32 32" fill="none">
  <!-- Digital Article book icon -->
  
  <!-- Left page -->
  <path d="M4 8 Q4 6 6 6 L15 6 Q16 6 16 8 L16 24 Q16 26 15 26 L6 26 Q4 26 4 24 Z" 
        fill="#2563eb" stroke="#1d4ed8" stroke-width="1"/>
  
  <!-- Right page -->
  <path d="M16 8 Q16 6 17 6 L26 6 Q28 6 28 8 L28 24 Q28 26 26 26 L17 26 Q16 26 16 24 Z" 
        fill="#3b82f6" stroke="#1d4ed8" stroke-width="1"/>
  
  <!-- Left page: Traditional text lines -->
  <line x1="7" y1="10" x2="13" y2="10" stroke="white" stroke-width="0.8" opacity="0.7"/>
  <line x1="7" y1="13" x2="12" y2="13" stroke="white" stroke-width="0.8" opacity="0.7"/>
  <line x1="7" y1="16" x2="13" y2="16" stroke="white" stroke-width="0.8" opacity="0.7"/>
  
  <!-- Right page: Digital elements -->
  <!-- Code brackets -->
  <text x="19" y="12" font-family="monospace" font-size="4" fill="white" opacity="0.8">&lt;/&gt;</text>
  
  <!-- Binary digits -->
  <text x="19" y="16" font-family="monospace" font-size="2.5" fill="white" opacity="0.6">101010</text>
  
  <!-- Circuit-like connection dots -->
  <circle cx="20" cy="19" r="0.8" fill="#10b981"/>
  <circle cx="23" cy="19" r="0.8" fill="#10b981"/>
  <circle cx="26" cy="19" r="0.8" fill="#10b981"/>
  
  <!-- Connection lines between dots -->
  <line x1="20.8" y1="19" x2="22.2" y2="19" stroke="#10b981" stroke-width="0.6"/>
  <line x1="23.8" y1="19" x2="25.2" y2="19" stroke="#10b981" stroke-width="0.6"/>
  
  <!-- Small digital accent on spine -->
  <rect x="15.5" y="12" width="1" height="8" fill="#10b981" opacity="0.3"/>
</svg>
